<svg id="visual" viewBox="0 0 960 200" width="960" height="200" xmlns="http://www.w3.org/2000/svg" xmlns:xlink="http://www.w3.org/1999/xlink" version="1.1"><g stroke-width="1" stroke-linejoin="bevel"><path d="M443.7 106L445.7 200L531.3 200Z" fill="#007a72" stroke="#007a72"></path><path d="M531.3 200L551.3 66L443.7 106Z" fill="#182835" stroke="#182835"></path><path d="M531.3 200L610 200L551.3 66Z" fill="#005461" stroke="#005461"></path><path d="M551.3 66L519.3 0L443.7 106Z" fill="#114251" stroke="#114251"></path><path d="M394.7 0L344 88L443.7 106Z" fill="#007a72" stroke="#007a72"></path><path d="M443.7 106L344 88L445.7 200Z" fill="#182835" stroke="#182835"></path><path d="M610 200L645 111L551.3 66Z" fill="#114251" stroke="#114251"></path><path d="M551.3 66L662 0L519.3 0Z" fill="#005461" stroke="#005461"></path><path d="M519.3 0L394.7 0L443.7 106Z" fill="#007070" stroke="#007070"></path><path d="M344 88L308 200L445.7 200Z" fill="#163948" stroke="#163948"></path><path d="M645 111L662 0L551.3 66Z" fill="#005d67" stroke="#005d67"></path><path d="M394.7 0L282 0L344 88Z" fill="#163948" stroke="#163948"></path><path d="M344 88L223.3 200L308 200Z" fill="#182835" stroke="#182835"></path><path d="M188.3 60L223.3 200L344 88Z" fill="#0a4b5a" stroke="#0a4b5a"></path><path d="M610 200L754.7 200L645 111Z" fill="#007a72" stroke="#007a72"></path><path d="M645 111L731.7 0L662 0Z" fill="#114251" stroke="#114251"></path><path d="M282 0L249.3 0L344 88Z" fill="#114251" stroke="#114251"></path><path d="M768.7 85L731.7 0L645 111Z" fill="#007a72" stroke="#007a72"></path><path d="M754.7 200L768.7 85L645 111Z" fill="#18303f" stroke="#18303f"></path><path d="M249.3 0L188.3 60L344 88Z" fill="#0a4b5a" stroke="#0a4b5a"></path><path d="M754.7 200L815.3 102L768.7 85Z" fill="#038373" stroke="#038373"></path><path d="M768.7 85L841.3 0L731.7 0Z" fill="#005461" stroke="#005461"></path><path d="M754.7 200L821.3 200L815.3 102Z" fill="#00676c" stroke="#00676c"></path><path d="M118.7 0L137.7 98L188.3 60Z" fill="#038373" stroke="#038373"></path><path d="M188.3 60L137.7 98L223.3 200Z" fill="#18303f" stroke="#18303f"></path><path d="M137.7 98L110.7 200L223.3 200Z" fill="#00676c" stroke="#00676c"></path><path d="M960 97L841.3 0L815.3 102Z" fill="#007070" stroke="#007070"></path><path d="M815.3 102L841.3 0L768.7 85Z" fill="#007a72" stroke="#007a72"></path><path d="M249.3 0L118.7 0L188.3 60Z" fill="#005d67" stroke="#005d67"></path><path d="M137.7 98L0 130L110.7 200Z" fill="#007070" stroke="#007070"></path><path d="M821.3 200L960 97L815.3 102Z" fill="#005461" stroke="#005461"></path><path d="M960 200L960 97L821.3 200Z" fill="#038373" stroke="#038373"></path><path d="M0 0L0 130L137.7 98Z" fill="#038373" stroke="#038373"></path><path d="M0 130L0 200L110.7 200Z" fill="#0a4b5a" stroke="#0a4b5a"></path><path d="M960 97L960 0L841.3 0Z" fill="#18303f" stroke="#18303f"></path><path d="M118.7 0L0 0L137.7 98Z" fill="#163948" stroke="#163948"></path></g></svg>