<svg id="visual" viewBox="0 0 900 250" width="900" height="250" xmlns="http://www.w3.org/2000/svg" xmlns:xlink="http://www.w3.org/1999/xlink" version="1.1"><path d="M0 36L82 19L164 19L245 44L327 16L409 31L491 29L573 21L655 41L736 21L818 21L900 41L900 0L818 0L736 0L655 0L573 0L491 0L409 0L327 0L245 0L164 0L82 0L0 0Z" fill="#182835"></path><path d="M0 129L82 119L164 96L245 104L327 56L409 84L491 86L573 106L655 111L736 86L818 64L900 131L900 39L818 19L736 19L655 39L573 19L491 27L409 29L327 14L245 42L164 17L82 17L0 34Z" fill="#184d60"></path><path d="M0 189L82 171L164 141L245 156L327 94L409 136L491 134L573 161L655 146L736 131L818 124L900 179L900 129L818 62L736 84L655 109L573 104L491 84L409 82L327 54L245 102L164 94L82 117L0 127Z" fill="#007785"></path><path d="M0 231L82 219L164 196L245 214L327 196L409 201L491 206L573 199L655 226L736 206L818 201L900 229L900 177L818 122L736 129L655 144L573 159L491 132L409 134L327 92L245 154L164 139L82 169L0 187Z" fill="#00a298"></path><path d="M0 251L82 251L164 251L245 251L327 251L409 251L491 251L573 251L655 251L736 251L818 251L900 251L900 227L818 199L736 204L655 224L573 197L491 204L409 199L327 194L245 212L164 194L82 217L0 229Z" fill="#00cc8e"></path></svg>