<svg id="visual" viewBox="0 0 900 100" width="900" height="100" xmlns="http://www.w3.org/2000/svg" xmlns:xlink="http://www.w3.org/1999/xlink" version="1.1"><rect x="0" y="0" width="900" height="100" fill="#182835"></rect><path d="M0 39L21.5 35.8C43 32.7 86 26.3 128.8 28.7C171.7 31 214.3 42 257.2 44C300 46 343 39 385.8 36C428.7 33 471.3 34 514.2 33C557 32 600 29 642.8 30.8C685.7 32.7 728.3 39.3 771.2 43.5C814 47.7 857 49.3 878.5 50.2L900 51L900 0L878.5 0C857 0 814 0 771.2 0C728.3 0 685.7 0 642.8 0C600 0 557 0 514.2 0C471.3 0 428.7 0 385.8 0C343 0 300 0 257.2 0C214.3 0 171.7 0 128.8 0C86 0 43 0 21.5 0L0 0Z" fill="#038373" stroke-linecap="round" stroke-linejoin="miter"></path></svg>