<svg id="visual" viewBox="0 0 900 100" width="900" height="100" xmlns="http://www.w3.org/2000/svg" xmlns:xlink="http://www.w3.org/1999/xlink" version="1.1"><rect x="0" y="0" width="900" height="100" fill="#00CC8E"></rect><path d="M0 37L21.5 36.5C43 36 86 35 128.8 37C171.7 39 214.3 44 257.2 47.3C300 50.7 343 52.3 385.8 49.5C428.7 46.7 471.3 39.3 514.2 35.2C557 31 600 30 642.8 31.5C685.7 33 728.3 37 771.2 40.2C814 43.3 857 45.7 878.5 46.8L900 48L900 0L878.5 0C857 0 814 0 771.2 0C728.3 0 685.7 0 642.8 0C600 0 557 0 514.2 0C471.3 0 428.7 0 385.8 0C343 0 300 0 257.2 0C214.3 0 171.7 0 128.8 0C86 0 43 0 21.5 0L0 0Z" fill="#038373" stroke-linecap="round" stroke-linejoin="miter"></path></svg>